PathFileType	4	(X/Y/Z)	C:/Users/opensim2020/Desktop/walking_exp_matlab/subject03_walking08_straight_01.trc																																																																																																																																																							
DataRate	CameraRate	NumFrames	NumMarkers	Units	OrigDataRate	OrigDataStartFrame	OrigNumFrames																																																																																																																																																			
100	100	4	51	mm	100	483	451																																																																																																																																																			
Frame#	Time	LFHD			RFHD			LBHD			RBHD			C7			T10			CLAV			STRN			RBAK			LSHO			LUPA			LELB			LFRM			LWRA			LWRB			LFIN			RSHO			RUPA			RELB			RFRM			RWRA			RWRB			RFIN			LASI			RASI			LPSI			RPSI			LTHI			LKNE			LTIB			LANK			LHEE			LTOE			RTHI			RKNE			RTIB			RANK			RHEE			RTOE			*39			*40			*41			*42			*43			*44			*45			*46			*47			*48			*49			*50		
		X1	Y1	Z1	X2	Y2	Z2	X3	Y3	Z3	X4	Y4	Z4	X5	Y5	Z5	X6	Y6	Z6	X7	Y7	Z7	X8	Y8	Z8	X9	Y9	Z9	X10	Y10	Z10	X11	Y11	Z11	X12	Y12	Z12	X13	Y13	Z13	X14	Y14	Z14	X15	Y15	Z15	X16	Y16	Z16	X17	Y17	Z17	X18	Y18	Z18	X19	Y19	Z19	X20	Y20	Z20	X21	Y21	Z21	X22	Y22	Z22	X23	Y23	Z23	X24	Y24	Z24	X25	Y25	Z25	X26	Y26	Z26	X27	Y27	Z27	X28	Y28	Z28	X29	Y29	Z29	X30	Y30	Z30	X31	Y31	Z31	X32	Y32	Z32	X33	Y33	Z33	X34	Y34	Z34	X35	Y35	Z35	X36	Y36	Z36	X37	Y37	Z37	X38	Y38	Z38	X39	Y39	Z39	X40	Y40	Z40	X41	Y41	Z41	X42	Y42	Z42	X43	Y43	Z43	X44	Y44	Z44	X45	Y45	Z45	X46	Y46	Z46	X47	Y47	Z47	X48	Y48	Z48	X49	Y49	Z49	X50	Y50	Z50	X51	Y51	Z51
																																																																																																																																																										
1	0	-1267.42114	1604.44556	-1055.49414	-1284.82422	1607.53772	-924.30591	-1400.71655	1580.86438	-1068.97205	-1412.40906	1582.9585	-938.24261	-1460.26941	1421.52759	-1019.14667	-1525.59363	1113.97473	-1023.04956	-1345.75562	1334.38281	-1009.56354	-1314.59607	1166.93823	-1016.70404	-1534.28406	1246.85669	-931.40283	-1375.05383	1378.30103	-1166.22986	-1357.90405	1190.95557	-1250.495	-1327.89893	1072.9231	-1269.61353	-1273.94861	955.48492	-1269.78638	-1231.78003	844.20544	-1240.69214	-1247.20422	846.89905	-1293.89929	-1210.11975	771.63672	-1285.93188	-1405.73206	1360.97522	-853.81165	-1433.96277	1143.4967	-772.67828	-1430.90869	1032.22632	-750.1734	-1433.09912	896.00018	-735.44464	-1413.89441	794.26056	-759.08264	-1448.53796	797.7832	-718.42816	-1436.73059	723.81647	-719.75037	-1378.10278	928.57056	-1136.97412	-1373.59741	938.88763	-901.08966	-1538.87793	971.29181	-1082.54346	-1532.17554	978.40009	-935.76111	-1478.64575	633.94922	-1167.26672	-1498.72095	456.74298	-1126.91406	-1571.1886	276.83957	-1128.7218	-1615.65186	67.1472	-1086.75562	-1649.21387	33.26133	-1049.00537	-1460.9729	28.14191	-1092.59717	-1371.2876	654.63074	-850.96497	-1319.15979	483.31314	-886.5462	-1345.32739	292.64697	-879.46356	-1348.58386	75.50217	-922.23059	-1389.91028	41.98407	-976.61865	-1210.37195	40.43126	-934.09888	NaN	NaN	NaN	NaN	NaN	NaN	NaN	NaN	NaN	NaN	NaN	NaN	NaN	NaN	NaN	NaN	NaN	NaN	NaN	NaN	NaN	NaN	NaN	NaN	NaN	NaN	NaN	NaN	NaN	NaN	NaN	NaN	NaN	NaN	NaN	NaN
2	0.01	-1263.67834	1604.10547	-1055.03967	-1281.78662	1607.32678	-924.30139	-1397.05188	1580.23743	-1069.36597	-1409.7439	1582.4895	-938.42358	-1456.52332	1421.11279	-1019.99664	-1518.95691	1111.67603	-1025.24084	-1341.85608	1333.87451	-1009.59857	-1310.65417	1166.61389	-1016.58655	-1530.96106	1246.26025	-932.8042	-1370.1842	1377.78271	-1166.44873	-1352.09668	1190.68555	-1250.78735	-1321.52722	1072.68958	-1269.46716	-1266.60181	955.86377	-1268.84143	-1224.08862	844.77631	-1238.60498	-1238.41858	847.34235	-1291.8175	-1200.42883	772.82013	-1283.22742	-1403.01929	1360.29883	-854.1994	-1432.97852	1142.98584	-773.5838	-1430.8241	1031.75391	-750.9978	-1433.53735	895.45685	-736.54407	-1414.08618	793.79199	-760.21643	-1449.40027	797.24567	-719.87225	-1437.68262	723.16748	-721.23328	-1374.03577	927.90063	-1137.40674	-1369.80347	938.32349	-901.60791	-1535.00488	970.49146	-1083.32385	-1528.4845	977.83441	-936.59814	-1474.11072	634.44043	-1169.24878	-1495.86072	457.23218	-1128.01025	-1570.16479	276.98303	-1129.11145	-1617.88428	65.31981	-1086.94067	-1648.84973	34.78941	-1047.59192	-1461.37549	27.96586	-1092.3927	-1369.20386	653.8764	-850.81543	-1316.87488	482.73074	-886.76819	-1337.61084	292.06158	-879.49847	-1333.6958	74.94975	-921.73077	-1374.26587	41.16638	-976.57385	-1194.78235	40.59444	-933.41675	NaN	NaN	NaN	NaN	NaN	NaN	NaN	NaN	NaN	NaN	NaN	NaN	NaN	NaN	NaN	NaN	NaN	NaN	NaN	NaN	NaN	NaN	NaN	NaN	NaN	NaN	NaN	NaN	NaN	NaN	NaN	NaN	NaN	NaN	NaN	NaN
3	0.02	-1260.12195	1603.94763	-1055.04346	-1278.67944	1607.13245	-924.22699	-1393.32385	1579.55896	-1069.66296	-1406.55127	1581.92786	-938.73407	-1452.38708	1420.47253	-1020.61273	-1515.01062	1111.22693	-1025.98462	-1337.9021	1333.1366	-1009.37933	-1306.92407	1165.36743	-1016.95282	-1527.40417	1245.65588	-934.05579	-1365.36169	1377.24316	-1166.57092	-1346.20776	1190.1676	-1250.68164	-1315.36194	1072.52979	-1269.53821	-1259.42371	956.13068	-1267.4646	-1216.13062	845.72559	-1236.31995	-1229.97351	847.81744	-1289.71484	-1191.02954	773.88544	-1280.28918	-1400.16663	1359.7738	-854.5354	-1431.86719	1142.51917	-774.44489	-1430.47473	1031.21399	-751.93884	-1433.69299	894.89594	-737.78821	-1413.82117	793.26666	-761.2489	-1450.25049	796.65442	-721.42517	-1438.61218	722.62152	-722.87427	-1369.96729	927.52216	-1138.16248	-1366.02246	937.69159	-901.9068	-1530.849	969.82605	-1084.11658	-1524.66064	977.22803	-937.31866	-1471.64673	633.29657	-1169.74255	-1495.07141	456.08636	-1127.61816	-1569.23047	277.11526	-1129.53479	-1616.08301	67.42274	-1086.85449	-1650.10681	34.76739	-1049.2124	-1461.35205	27.91934	-1092.4502	-1367.34827	652.922	-850.56061	-1314.5426	481.90247	-887.09149	-1330.23486	291.58319	-879.5578	-1319.82837	74.45531	-921.50836	-1358.94604	40.3608	-976.63635	-1179.76465	41.48476	-932.88251	NaN	NaN	NaN	NaN	NaN	NaN	NaN	NaN	NaN	NaN	NaN	NaN	NaN	NaN	NaN	NaN	NaN	NaN	NaN	NaN	NaN	NaN	NaN	NaN	NaN	NaN	NaN	NaN	NaN	NaN	NaN	NaN	NaN	NaN	NaN	NaN
4	0.03	-1256.31055	1603.66846	-1054.59546	-1275.40613	1606.88354	-924.10547	-1389.50806	1578.89941	-1069.91406	-1403.07434	1581.14368	-939.10437	-1448.32104	1419.9884	-1021.16638	-1511.00842	1110.79626	-1026.61255	-1333.95422	1332.78784	-1009.47699	-1304.06323	1164.53381	-1017.79523	-1523.76038	1245.04028	-935.15277	-1360.40601	1376.6637	-1166.6012	-1340.66699	1189.9895	-1250.94238	-1309.1886	1072.14807	-1269.06421	-1252.44226	956.34735	-1265.88843	-1208.40076	846.5022	-1233.88916	-1221.76294	848.16321	-1287.42407	-1181.9657	774.90985	-1277.17346	-1397.13977	1359.10938	-854.77362	-1430.51196	1141.98096	-775.3111	-1429.81458	1030.61804	-752.97333	-1433.54065	894.27228	-739.09546	-1413.50183	792.95654	-762.14752	-1450.62622	796.06854	-723.3075	-1438.93921	721.93958	-724.72601	-1365.62451	926.91168	-1138.40723	-1362.05823	936.96246	-902.22504	-1527.33032	969.42706	-1084.4375	-1520.62744	976.50909	-937.94067	-1468.79236	632.80774	-1170.11304	-1492.79395	456.01819	-1128.20972	-1568.19922	277.32556	-1129.9353	-1613.14941	68.3551	-1089.48987	-1650.01392	35.104	-1049.68896	-1461.35559	27.90477	-1092.46545	-1365.51978	651.67352	-850.17255	-1312.20422	480.88467	-887.38599	-1323.03394	290.98566	-879.67743	-1306.42957	74.20609	-921.18176	-1344.54736	39.64114	-976.30139	-1165.24475	42.84123	-932.85608	NaN	NaN	NaN	NaN	NaN	NaN	NaN	NaN	NaN	NaN	NaN	NaN	NaN	NaN	NaN	NaN	NaN	NaN	NaN	NaN	NaN	NaN	NaN	NaN	NaN	NaN	NaN	NaN	NaN	NaN	NaN	NaN	NaN	NaN	NaN	NaN
